<svg xmlns="http://www.w3.org/2000/svg" xmlns:xlink="http://www.w3.org/1999/xlink" viewBox="0 0 174 152"><defs><style>.cls-1{fill:url(#linear-gradient);}</style><linearGradient id="linear-gradient" x1="-169.3" y1="1287.36" x2="-169.97" y2="1286.91" gradientTransform="matrix(174, 0, 0, -152, 29617, 195723)" gradientUnits="userSpaceOnUse"><stop offset="0" stop-color="#00500b"/><stop offset="1" stop-color="#37b100"/></linearGradient></defs><title>box</title><g id="Layer_2" data-name="Layer 2"><g id="Layer_1-2" data-name="Layer 1"><g id="Page-1"><g id="serverpack-logo"><g id="Group-2"><g id="package"><path id="Shape" class="cls-1" d="M110.76,138.65a2.68,2.68,0,0,1-1.48,3.59l-1.27.53a2.91,2.91,0,0,1-3.77-1.41,2.69,2.69,0,0,1,1.48-3.6l1.27-.53a3,3,0,0,1,2.2,0,2.82,2.82,0,0,1,1.57,1.46ZM173.11,29.27l-23,21.29V123a2.77,2.77,0,0,1-1.69,2.56l-30.54,13.26a2.8,2.8,0,1,1-2.23-5.14l28.85-12.51V53.5L89.81,75.63v69.3l6.35-2.76a2.8,2.8,0,1,1,2.24,5.14l-10.28,4.46h-.05a2.66,2.66,0,0,1-2.19,0L25.57,125.61a2.77,2.77,0,0,1-1.69-2.56V83l-22.13-9a2.8,2.8,0,0,1-.86-4.64L24.78,47.29l0,0a2.91,2.91,0,0,1,.81-.53L85.94,22.33h0a2.87,2.87,0,0,1,2.08,0l58.66,23.74,19.34-17.92L111.48,6.07,98.84,17.78A2.8,2.8,0,1,1,95,13.68L109,.75a2.82,2.82,0,0,1,3-.54l60.31,24.41a2.8,2.8,0,0,1,.86,4.64ZM34,49.43,87,71l53-21.57L89.82,29V61a2.82,2.82,0,1,1-5.63,0V29Zm-4.52,71.93L84,145V76L27.28,53,8,70.86l19.76,8h0l34.61,14,11-10.19A2.82,2.82,0,0,1,76.15,82a2.78,2.78,0,0,1,1,4.76L64.9,98.17a2.84,2.84,0,0,1-3,.54L29.48,85.57Z"/></g></g></g></g></g></g></svg>