<?xml version="1.0" encoding="UTF-8"?>
<svg width="850px" height="200px" viewBox="0 0 850 200" version="1.1" xmlns="http://www.w3.org/2000/svg" xmlns:xlink="http://www.w3.org/1999/xlink">
    <defs>
        <linearGradient x1="89.8739669%" y1="26.7517286%" x2="22.8732024%" y2="71.5180457%" id="linearGradient-1">
            <stop stop-color="#00500B" offset="0%"></stop>
            <stop stop-color="#37B100" offset="100%"></stop>
        </linearGradient>
    </defs>
    <g id="Page-1" stroke="none" stroke-width="1" fill="none" fill-rule="evenodd">
        <g id="serverpack-logo">
            <rect id="Rectangle" fill="#FFFFFF" x="0" y="0" width="850" height="200"></rect>
            <g id="Group-2" transform="translate(34.000000, 24.000000)" fill-rule="nonzero">
                <path d="M213.743119,78.0698113 C212.519872,76.8987363 211.082577,75.9125826 209.431193,75.1113208 C207.779808,74.3100589 206.036706,73.909434 204.201835,73.909434 C202.7951,73.909434 201.495419,74.1867897 200.302752,74.7415094 C199.110086,75.2962292 198.513761,76.2515655 198.513761,77.6075472 C198.513761,78.9018933 199.171247,79.8264123 200.486239,80.3811321 C201.80123,80.9358518 203.926591,81.5521979 206.862385,82.2301887 C208.574932,82.6000018 210.302744,83.123896 212.045872,83.8018868 C213.789,84.4798776 215.363907,85.3735794 216.770642,86.4830189 C218.177377,87.5924584 219.308864,88.9484197 220.165138,90.5509434 C221.021411,92.1534671 221.449541,94.0641398 221.449541,96.2830189 C221.449541,99.1798887 220.868507,101.629864 219.706422,103.633019 C218.544337,105.636174 217.03059,107.254082 215.165138,108.486792 C213.299685,109.719503 211.204905,110.613205 208.880734,111.167925 C206.556563,111.722644 204.232428,112 201.908257,112 C198.177351,112 194.522954,111.399063 190.944954,110.19717 C187.366955,108.995277 184.385333,107.223282 182,104.881132 L190.440367,95.9132075 C191.785939,97.3924602 193.437299,98.6251523 195.394495,99.6113208 C197.351692,100.597489 199.431182,101.090566 201.633028,101.090566 C202.856275,101.090566 204.064214,100.797802 205.256881,100.212264 C206.449547,99.6267266 207.045872,98.594347 207.045872,97.1150943 C207.045872,95.6974772 206.311934,94.6496889 204.844037,93.9716981 C203.376139,93.2937073 201.082584,92.5849094 197.963303,91.845283 C196.373081,91.4754698 194.782883,90.982393 193.192661,90.3660377 C191.602439,89.7496825 190.180434,88.9176153 188.926606,87.8698113 C187.672777,86.8220073 186.648322,85.5276807 185.853211,83.9867925 C185.0581,82.4459042 184.66055,80.5968661 184.66055,78.4396226 C184.66055,75.6660239 185.241584,73.3085003 186.40367,71.3669811 C187.565755,69.425462 189.064211,67.8383709 190.899083,66.6056604 C192.733954,65.3729498 194.767573,64.4638394 197,63.8783019 C199.232427,63.2927644 201.44953,63 203.651376,63 C207.07647,63 210.42506,63.5393028 213.697248,64.6179245 C216.969435,65.6965463 219.736992,67.3144546 222,69.4716981 L213.743119,78.0698113 Z M261,82 C261,79.5368298 260.26462,77.4210615 258.793839,75.6526316 C257.323057,73.8842017 255.116918,73 252.175355,73 C250.73459,73 249.413908,73.2368397 248.21327,73.7105263 C247.012632,74.1842129 245.96209,74.8315748 245.061611,75.6526316 C244.161133,76.4736883 243.440761,77.4368366 242.900474,78.5421053 C242.360187,79.6473739 242.060032,80.799994 242,82 L261,82 Z M276,88.054717 L276,89.9037736 C276,90.5201289 275.969172,91.1056576 275.907514,91.6603774 L242.520231,91.6603774 C242.643546,92.9547235 243.028898,94.1257809 243.676301,95.1735849 C244.323703,96.2213889 245.156064,97.1304993 246.17341,97.9009434 C247.190757,98.6713875 248.3314,99.2723249 249.595376,99.7037736 C250.859351,100.135222 252.16955,100.350943 253.526012,100.350943 C255.930648,100.350943 257.96531,99.9040925 259.630058,99.0103774 C261.294806,98.1166622 262.651247,96.9610134 263.699422,95.5433962 L274.242775,102.2 C272.084768,105.343412 269.233158,107.76257 265.687861,109.457547 C262.142564,111.152524 258.026998,112 253.34104,112 C249.888229,112 246.620439,111.460697 243.537572,110.382075 C240.454705,109.303454 237.757237,107.731771 235.445087,105.666981 C233.132936,103.602191 231.314072,101.059764 229.988439,98.0396226 C228.662806,95.0194818 228,91.5679439 228,87.6849057 C228,83.9251384 228.647392,80.5198266 229.942197,77.4688679 C231.237001,74.4179093 232.994209,71.8292559 235.213873,69.7028302 C237.433537,67.5764045 240.053935,65.9276788 243.075145,64.7566038 C246.096354,63.5855287 249.364144,63 252.878613,63 C256.269766,63 259.383415,63.5701201 262.219653,64.7103774 C265.055891,65.8506346 267.491319,67.4993603 269.526012,69.6566038 C271.560704,71.8138473 273.148357,74.4333179 274.289017,77.5150943 C275.429678,80.5968708 276,84.1100432 276,88.054717 Z M314.363636,76.5859375 C313.696966,76.4023428 313.045458,76.2799482 312.409091,76.21875 C311.772724,76.1575518 311.151518,76.1269531 310.545455,76.1269531 C308.545445,76.1269531 306.863643,76.494137 305.5,77.2285156 C304.136357,77.9628943 303.045459,78.8502552 302.227273,79.890625 C301.409087,80.9309948 300.818184,82.0631449 300.454545,83.2871094 C300.090907,84.5110738 299.909091,85.5820267 299.909091,86.5 L299.909091,110 L285,110 L285,64.2851562 L299.363636,64.2851562 L299.363636,70.8945312 L299.545455,70.8945312 C300.696975,68.5689988 302.333323,66.6718823 304.454545,65.203125 C306.575768,63.7343677 309.030289,63 311.818182,63 C312.424245,63 313.015149,63.0305987 313.590909,63.0917969 C314.16667,63.1529951 314.636362,63.2447911 315,63.3671875 L314.363636,76.5859375 Z M349.743409,111 L333.256591,111 L315,65 L331.859402,65 L341.639719,94.8353414 L341.919156,94.8353414 L351.699473,65 L368,65 L349.743409,111 Z M405,82 C405,79.5368298 404.26462,77.4210615 402.793839,75.6526316 C401.323057,73.8842017 399.116918,73 396.175355,73 C394.73459,73 393.413908,73.2368397 392.21327,73.7105263 C391.012632,74.1842129 389.96209,74.8315748 389.061611,75.6526316 C388.161133,76.4736883 387.440761,77.4368366 386.900474,78.5421053 C386.360187,79.6473739 386.060032,80.799994 386,82 L405,82 Z M420,88.054717 L420,89.9037736 C420,90.5201289 419.969172,91.1056576 419.907514,91.6603774 L386.520231,91.6603774 C386.643546,92.9547235 387.028898,94.1257809 387.676301,95.1735849 C388.323703,96.2213889 389.156064,97.1304993 390.17341,97.9009434 C391.190757,98.6713875 392.3314,99.2723249 393.595376,99.7037736 C394.859351,100.135222 396.16955,100.350943 397.526012,100.350943 C399.930648,100.350943 401.96531,99.9040925 403.630058,99.0103774 C405.294806,98.1166622 406.651247,96.9610134 407.699422,95.5433962 L418.242775,102.2 C416.084768,105.343412 413.233158,107.76257 409.687861,109.457547 C406.142564,111.152524 402.026998,112 397.34104,112 C393.888229,112 390.620439,111.460697 387.537572,110.382075 C384.454705,109.303454 381.757237,107.731771 379.445087,105.666981 C377.132936,103.602191 375.314072,101.059764 373.988439,98.0396226 C372.662806,95.0194818 372,91.5679439 372,87.6849057 C372,83.9251384 372.647392,80.5198266 373.942197,77.4688679 C375.237001,74.4179093 376.994209,71.8292559 379.213873,69.7028302 C381.433537,67.5764045 384.053935,65.9276788 387.075145,64.7566038 C390.096354,63.5855287 393.364144,63 396.878613,63 C400.269766,63 403.383415,63.5701201 406.219653,64.7103774 C409.055891,65.8506346 411.491319,67.4993603 413.526012,69.6566038 C415.560704,71.8138473 417.148357,74.4333179 418.289017,77.5150943 C419.429678,80.5968708 420,84.1100432 420,88.054717 Z M458.363636,76.5859375 C457.696966,76.4023428 457.045458,76.2799482 456.409091,76.21875 C455.772724,76.1575518 455.151518,76.1269531 454.545455,76.1269531 C452.545445,76.1269531 450.863643,76.494137 449.5,77.2285156 C448.136357,77.9628943 447.045459,78.8502552 446.227273,79.890625 C445.409087,80.9309948 444.818184,82.0631449 444.454545,83.2871094 C444.090907,84.5110738 443.909091,85.5820267 443.909091,86.5 L443.909091,110 L429,110 L429,64.2851562 L443.363636,64.2851562 L443.363636,70.8945312 L443.545455,70.8945312 C444.696975,68.5689988 446.333323,66.6718823 448.454545,65.203125 C450.575768,63.7343677 453.030289,63 455.818182,63 C456.424245,63 457.015149,63.0305987 457.590909,63.0917969 C458.16667,63.1529951 458.636362,63.2447911 459,63.3671875 L458.363636,76.5859375 Z M517,86.9481383 C517,90.1290053 516.50903,93.1874853 515.527076,96.1236702 C514.545121,99.0598551 513.11824,101.644271 511.24639,103.876995 C509.374539,106.109719 507.088461,107.898929 504.388087,109.244681 C501.687712,110.590432 498.619151,111.263298 495.18231,111.263298 C492.359192,111.263298 489.689543,110.697479 487.173285,109.565824 C484.657027,108.43417 482.693148,106.889637 481.281588,104.932181 L481.097473,104.932181 L481.097473,132 L466,132 L466,64.2845745 L480.361011,64.2845745 L480.361011,69.8816489 L480.637184,69.8816489 C482.048744,68.0465334 483.99728,66.4408313 486.482852,65.0644947 C488.968424,63.688158 491.8989,63 495.274368,63 C498.588464,63 501.595654,63.6422808 504.296029,64.9268617 C506.996403,66.2114426 509.282482,67.9547762 511.154332,70.1569149 C513.026183,72.3590536 514.468406,74.9128844 515.481047,77.818484 C516.493687,80.7240837 517,83.7672713 517,86.9481383 Z M502,86.90625 C502,85.4062425 501.767935,83.9375072 501.303797,82.5 C500.83966,81.0624928 500.158936,79.7968805 499.261603,78.703125 C498.364271,77.6093695 497.234887,76.7187534 495.873418,76.03125 C494.511948,75.3437466 492.933905,75 491.139241,75 C489.406461,75 487.85936,75.3437466 486.49789,76.03125 C485.136421,76.7187534 483.976095,77.6249944 483.016878,78.75 C482.05766,79.8750056 481.315052,81.1562428 480.78903,82.59375 C480.263007,84.0312572 480,85.5 480,87 C480,88.5 480.263007,89.9687428 480.78903,91.40625 C481.315052,92.8437572 482.05766,94.1249944 483.016878,95.25 C483.976095,96.3750056 485.136421,97.2812466 486.49789,97.96875 C487.85936,98.6562534 489.406461,99 491.139241,99 C492.933905,99 494.511948,98.6562534 495.873418,97.96875 C497.234887,97.2812466 498.364271,96.3750056 499.261603,95.25 C500.158936,94.1249944 500.83966,92.8281323 501.303797,91.359375 C501.767935,89.8906177 502,88.4062575 502,86.90625 Z M553,91 L551.068966,91 C549.413785,91 547.743303,91.07703 546.057471,91.2310924 C544.371639,91.3851548 542.869738,91.677869 541.551724,92.1092437 C540.23371,92.5406184 539.145598,93.1722647 538.287356,94.0042017 C537.429114,94.8361386 537,95.9299652 537,97.2857143 C537,98.1484637 537.199232,98.8879521 537.597701,99.5042017 C537.996171,100.120451 538.501913,100.613444 539.114943,100.983193 C539.727972,101.352943 540.432946,101.614845 541.229885,101.768908 C542.026824,101.92297 542.7931,102 543.528736,102 C546.593885,102 548.938689,101.15267 550.563218,99.4579832 C552.187748,97.7632968 553,95.4678016 553,92.5714286 L553,91 Z M525.223158,70.8250951 C527.940364,68.216717 531.105245,66.2604628 534.717895,64.9562738 C538.330544,63.6520847 542.020332,63 545.787368,63 C549.677914,63 552.966302,63.4813006 555.652632,64.4439163 C558.338961,65.4065321 560.515781,66.8970115 562.183158,68.9153992 C563.850535,70.933787 565.070172,73.4800227 565.842105,76.5541825 C566.614039,79.6283424 567,83.2769117 567,87.5 L567,110.882129 L553.105263,110.882129 L553.105263,105.944867 L552.827368,105.944867 C551.654029,107.870098 549.878608,109.360578 547.501053,110.41635 C545.123497,111.472122 542.545277,112 539.766316,112 C537.913675,112 535.999308,111.751587 534.023158,111.254753 C532.047008,110.757919 530.24071,109.950576 528.604211,108.8327 C526.967711,107.714823 525.624567,106.224344 524.574737,104.361217 C523.524907,102.49809 523,100.200267 523,97.4676806 C523,94.1140517 523.910868,91.4125578 525.732632,89.3631179 C527.554395,87.313678 529.901038,85.7300436 532.772632,84.6121673 C535.644225,83.494291 538.839982,82.7490513 542.36,82.3764259 C545.880018,82.0038004 549.307352,81.8174905 552.642105,81.8174905 L552.642105,81.0722433 C552.642105,78.7743865 551.839306,77.0820713 550.233684,75.9952471 C548.628062,74.908423 546.651942,74.365019 544.305263,74.365019 C542.143849,74.365019 540.059659,74.8307938 538.052632,75.7623574 C536.045604,76.693921 534.331937,77.8117806 532.911579,79.1159696 L525.223158,70.8250951 Z M610.177106,79.3641509 C609.310291,78.2547114 608.133917,77.3610097 606.647948,76.6830189 C605.16198,76.0050281 603.645076,75.6660377 602.097192,75.6660377 C600.487393,75.6660377 599.032404,75.9896194 597.732181,76.6367925 C596.431959,77.2839655 595.317499,78.14685 594.388769,79.2254717 C593.460039,80.3040934 592.732544,81.5521942 592.206263,82.9698113 C591.679983,84.3874285 591.416847,85.8974763 591.416847,87.5 C591.416847,89.1025237 591.664504,90.6125715 592.159827,92.0301887 C592.65515,93.4478058 593.382645,94.6959066 594.342333,95.7745283 C595.302021,96.85315 596.447438,97.7006258 597.778618,98.3169811 C599.109798,98.9333364 600.611223,99.2415094 602.282937,99.2415094 C603.830821,99.2415094 605.363203,98.9487451 606.88013,98.3632075 C608.397056,97.77767 609.619866,96.9301942 610.548596,95.8207547 L619,106.083019 C617.080624,107.932085 614.604047,109.380498 611.570194,110.428302 C608.536342,111.476106 605.316792,112 601.911447,112 C598.258441,112 594.853148,111.445289 591.695464,110.335849 C588.537781,109.226415 585.798068,107.608501 583.476242,105.482075 C581.154416,103.35565 579.32794,100.782405 577.99676,97.7622642 C576.66558,94.7421233 576,91.3214028 576,87.5 C576,83.7402328 576.66558,80.3503296 577.99676,77.3301887 C579.32794,74.3100478 581.154416,71.7368031 583.476242,69.6103774 C585.798068,67.4839516 588.537781,65.8506346 591.695464,64.7103774 C594.853148,63.5701201 598.227484,63 601.818575,63 C603.490289,63 605.1465,63.1540865 606.787257,63.4622642 C608.428014,63.7704418 610.006832,64.1864754 611.523758,64.7103774 C613.040684,65.2342793 614.433759,65.8814427 615.703024,66.6518868 C616.972289,67.4223309 618.07127,68.2698067 619,69.1943396 L610.177106,79.3641509 Z M674,111 L655.372659,111 L640.41573,88.8703704 L640.140449,88.8703704 L640.140449,111 L625,111 L625,41 L640.140449,41 L640.140449,83.5925926 L640.41573,83.5925926 L655.005618,64.8888889 L673.265918,64.8888889 L655.64794,85.7222222 L674,111 Z M697,102 C697,104.571441 696.075092,106.714277 694.225248,108.428571 C692.375403,110.142866 690.165029,111 687.594059,111 C686.277221,111 685.038785,110.77041 683.878713,110.311224 C682.718641,109.852039 681.699674,109.224494 680.821782,108.428571 C679.94389,107.632649 679.254128,106.698985 678.752475,105.627551 C678.250823,104.556117 678,103.377557 678,102.091837 C678,100.867341 678.250823,99.7040871 678.752475,98.6020408 C679.254128,97.5 679.94389,96.5357184 680.821782,95.7091837 C681.699674,94.8826489 682.718641,94.2244922 683.878713,93.7346939 C685.038785,93.2448955 686.277221,93 687.594059,93 C690.165029,93 692.375403,93.8571343 694.225248,95.5714286 C696.075092,97.2857229 697,99.4285586 697,102 Z M724,49.5 C724,50.6963023 723.773938,51.8138837 723.321809,52.8527778 C722.869679,53.8916719 722.266848,54.7888851 721.513298,55.5444444 C720.759748,56.3000038 719.855502,56.8981459 718.800532,57.3388889 C717.745562,57.7796318 716.645396,58 715.5,58 C713.08864,58 711.069157,57.1657491 709.441489,55.4972222 C707.813822,53.8286954 707,51.8296413 707,49.5 C707,48.366661 707.210991,47.2805608 707.632979,46.2416667 C708.054967,45.2027726 708.657798,44.3055593 709.441489,43.55 C710.225181,42.7944407 711.129428,42.1805579 712.154255,41.7083333 C713.179083,41.2361087 714.29432,41 715.5,41 C716.645396,41 717.745562,41.2203682 718.800532,41.6611111 C719.855502,42.1018541 720.759748,42.6999962 721.513298,43.4555556 C722.266848,44.2111149 722.869679,45.1083281 723.321809,46.1472222 C723.773938,47.1861163 724,48.3036977 724,49.5 Z M708,111 L708,65 L723,65 L723,111 L708,111 Z M783,87.3150943 C783,91.0748616 782.323696,94.4801734 780.971067,97.5311321 C779.618438,100.582091 777.773972,103.170744 775.437613,105.29717 C773.101254,107.423596 770.396037,109.072321 767.321881,110.243396 C764.247724,111.414471 760.958426,112 757.453888,112 C754.010833,112 750.736905,111.414471 747.632007,110.243396 C744.527109,109.072321 741.821892,107.423596 739.516275,105.29717 C737.210658,103.170744 735.381562,100.582091 734.028933,97.5311321 C732.676304,94.4801734 732,91.0748616 732,87.3150943 C732,83.5553271 732.676304,80.1654239 734.028933,77.145283 C735.381562,74.1251421 737.210658,71.5673061 739.516275,69.4716981 C741.821892,67.3760902 744.527109,65.7735905 747.632007,64.6641509 C750.736905,63.5547114 754.010833,63 757.453888,63 C760.958426,63 764.247724,63.5547114 767.321881,64.6641509 C770.396037,65.7735905 773.101254,67.3760902 775.437613,69.4716981 C777.773972,71.5673061 779.618438,74.1251421 780.971067,77.145283 C782.323696,80.1654239 783,83.5553271 783,87.3150943 Z M769,86.90625 C769,85.4062425 768.751415,83.9375072 768.254237,82.5 C767.75706,81.0624928 767.042378,79.7968805 766.110169,78.703125 C765.177961,77.6093695 764.028255,76.7187534 762.661017,76.03125 C761.293778,75.3437466 759.709049,75 757.90678,75 C756.104511,75 754.519781,75.3437466 753.152542,76.03125 C751.785304,76.7187534 750.651134,77.6093695 749.75,78.703125 C748.848866,79.7968805 748.165257,81.0624928 747.699153,82.5 C747.233049,83.9375072 747,85.4062425 747,86.90625 C747,88.4062575 747.233049,89.8749928 747.699153,91.3125 C748.165257,92.7500072 748.864402,94.0468692 749.79661,95.203125 C750.728818,96.3593808 751.878524,97.2812466 753.245763,97.96875 C754.613001,98.6562534 756.197731,99 758,99 C759.802269,99 761.386999,98.6562534 762.754237,97.96875 C764.121476,97.2812466 765.271182,96.3593808 766.20339,95.203125 C767.135598,94.0468692 767.834743,92.7500072 768.300847,91.3125 C768.766951,89.8749928 769,88.4062575 769,86.90625 Z" id="serverpack.io" fill-opacity="0.9" fill="#121212"></path>
                <g id="package" fill="url(#linearGradient-1)">
                    <path d="M110.763889,138.648472 C111.390095,140.031089 110.727958,141.637214 109.283122,142.240323 L108.006654,142.771292 C106.557893,143.375035 104.871217,142.742272 104.239359,141.357977 C103.6075,139.973682 104.269731,138.36206 105.718492,137.758317 L106.99496,137.227348 C107.69188,136.937404 108.480889,136.924287 109.187944,137.190891 C109.894998,137.457495 110.462004,137.981915 110.763889,138.648472 L110.763889,138.648472 Z M173.107764,29.2670897 L150.1226,50.5582706 L150.1226,123.043653 C150.119697,124.156077 149.456715,125.161166 148.433835,125.603843 L117.894935,138.856027 C116.47333,139.472423 114.820066,138.822292 114.202266,137.403919 C113.584466,135.985547 114.236078,134.336041 115.657683,133.719646 L144.507817,121.209917 L144.507817,53.4960888 L89.8081931,75.6337326 L89.8081931,144.928478 L96.1639151,142.171473 C97.0835322,141.772735 98.1465024,141.893781 98.9524152,142.489012 C99.7583279,143.084244 100.184746,144.063233 100.071042,145.057203 C99.9573371,146.051173 99.3207848,146.909117 98.4011677,147.307855 L88.1178244,151.767386 C88.1049943,151.767386 88.0889567,151.756185 88.0745228,151.756185 C87.3794683,152.077315 86.5788837,152.081402 85.8805718,151.767386 L25.567769,125.613444 C24.5448887,125.170766 23.8819072,124.165677 23.8790041,123.053254 L23.8790041,83.0182809 L1.74704259,74.0576155 C0.86019387,73.6972553 0.218871665,72.9104071 0.0460892024,71.9706894 C-0.12669326,71.0309716 0.192939866,70.0682386 0.893839439,69.417271 L24.7771127,47.2860276 C24.7883391,47.2764269 24.809188,47.278027 24.8204144,47.2684263 C25.0579532,47.0473252 25.3326463,46.8696682 25.6319197,46.7435874 L85.9447224,22.3337748 L85.9767977,22.3337748 C86.6460455,22.0670064 87.3924448,22.0670064 88.0616926,22.3337748 L146.716202,46.0683372 L166.059216,28.1470065 L111.484685,6.06536683 L98.8389957,17.7798367 C98.1092044,18.4885323 97.0518999,18.7471892 96.0763077,18.4556952 C95.1007155,18.1642012 94.3599365,17.3683008 94.1406862,16.3760441 C93.9214359,15.3837874 94.2581216,14.3508906 95.0204304,13.677132 L108.973189,0.748172007 C109.772148,0.00806399021 110.928399,-0.203443849 111.938551,0.205731729 L172.252957,24.6155443 C173.139806,24.9759045 173.781128,25.7627527 173.953911,26.7024704 C174.126693,27.6421882 173.80706,28.6049212 173.106161,29.2558888 L173.107764,29.2670897 Z M34,49.4278523 L87.0016084,71 L140,49.4278523 L89.8194398,29 L89.8194398,60.9886254 C89.8194398,62.5485121 88.5592939,63.81305 87.0048251,63.81305 C85.4503562,63.81305 84.1902103,62.5485121 84.1902103,60.9886254 L84.1902103,29.001614 L34,49.4278523 Z M29.4788516,121.363403 L84,145 L84,75.9493752 L27.2793354,53 L8,70.8581951 L27.7588811,78.8561154 L27.7796614,78.8640878 L62.394868,92.8668261 L73.3924493,82.6828715 C74.119838,81.9766725 75.1736618,81.7189268 76.1460423,82.0093939 C77.1184228,82.299861 77.8567631,83.0929575 78.0752916,84.0817185 C78.2938201,85.0704796 77.9582428,86.0997376 77.1984436,86.7711225 L64.899695,98.1652888 C64.1035509,98.9031569 62.9508791,99.1139611 61.9440951,98.7058181 L29.4788516,85.5704778 L29.4788516,121.363403 Z" id="Shape"></path>
                </g>
            </g>
        </g>
    </g>
</svg>