<svg xmlns="http://www.w3.org/2000/svg" xmlns:xlink="http://www.w3.org/1999/xlink" viewBox="0 0 783 152"><defs><style>.cls-1{fill:#121212;fill-opacity:0.9;}.cls-2{fill:url(#linear-gradient);}</style><linearGradient id="linear-gradient" x1="-169.3" y1="1287.36" x2="-169.97" y2="1286.91" gradientTransform="matrix(174, 0, 0, -152, 29617, 195723)" gradientUnits="userSpaceOnUse"><stop offset="0" stop-color="#00500b"/><stop offset="1" stop-color="#37b100"/></linearGradient></defs><title>serverpack-logo</title><g id="Layer_2" data-name="Layer 2"><g id="Layer_1-2" data-name="Layer 1"><g id="Page-1"><g id="serverpack-logo"><g id="Group-2"><path id="serverpack.io" class="cls-1" d="M213.74,78.07a16.71,16.71,0,0,0-4.31-3,11.83,11.83,0,0,0-5.23-1.2,9.25,9.25,0,0,0-3.9.83,2.93,2.93,0,0,0-1.79,2.87,2.85,2.85,0,0,0,2,2.77,42.24,42.24,0,0,0,6.37,1.85,34.41,34.41,0,0,1,5.19,1.57,18.39,18.39,0,0,1,4.72,2.68,12.87,12.87,0,0,1,3.4,4.07,12.06,12.06,0,0,1,1.28,5.73,13.84,13.84,0,0,1-6.28,12.21,19.8,19.8,0,0,1-6.29,2.68,30.17,30.17,0,0,1-7,.83,34.31,34.31,0,0,1-11-1.8,23.06,23.06,0,0,1-8.94-5.32l8.44-9a16.89,16.89,0,0,0,4.95,3.7,13.65,13.65,0,0,0,6.24,1.48,8.12,8.12,0,0,0,3.63-.88,3.15,3.15,0,0,0,1.79-3.09A3.33,3.33,0,0,0,204.84,94,38.17,38.17,0,0,0,198,91.85a36.31,36.31,0,0,1-4.77-1.48,15.08,15.08,0,0,1-4.26-2.5A12.42,12.42,0,0,1,185.85,84a12,12,0,0,1-1.19-5.55,13.55,13.55,0,0,1,1.74-7.07,14.86,14.86,0,0,1,4.5-4.76,19.58,19.58,0,0,1,6.1-2.73,25.92,25.92,0,0,1,6.65-.88,31.85,31.85,0,0,1,10,1.62,21.62,21.62,0,0,1,8.3,4.85ZM261,82a9.63,9.63,0,0,0-2.21-6.35Q256.58,73,252.18,73a10.79,10.79,0,0,0-4,.71,10.1,10.1,0,0,0-3.15,1.94,9.6,9.6,0,0,0-2.16,2.89A8.84,8.84,0,0,0,242,82Zm15,6V89.9a16.3,16.3,0,0,1-.09,1.76H242.52a7.94,7.94,0,0,0,1.16,3.51,9.94,9.94,0,0,0,2.49,2.73,12.06,12.06,0,0,0,3.43,1.8,11.83,11.83,0,0,0,3.93.65,12.79,12.79,0,0,0,6.1-1.34,12.08,12.08,0,0,0,4.07-3.47l10.54,6.66a21.44,21.44,0,0,1-8.55,7.26A28.41,28.41,0,0,1,253.34,112a29.42,29.42,0,0,1-9.8-1.62,23.8,23.8,0,0,1-8.09-4.71A21.73,21.73,0,0,1,230,98a25.46,25.46,0,0,1-2-10.36,26,26,0,0,1,1.94-10.21,23.23,23.23,0,0,1,5.27-7.77,23.53,23.53,0,0,1,7.87-4.94,26.87,26.87,0,0,1,9.8-1.76,24.84,24.84,0,0,1,9.34,1.71,20.33,20.33,0,0,1,7.31,5,22.77,22.77,0,0,1,4.76,7.86A30.2,30.2,0,0,1,276,88.05Zm38.36-11.46a10.61,10.61,0,0,0-1.95-.37q-1-.09-1.86-.09a10.48,10.48,0,0,0-5.05,1.1,10.28,10.28,0,0,0-3.27,2.66,10.18,10.18,0,0,0-1.78,3.4,11.55,11.55,0,0,0-.54,3.21V110H285V64.29h14.36v6.6h.19a14.82,14.82,0,0,1,4.9-5.69,12.64,12.64,0,0,1,7.37-2.2,17,17,0,0,1,1.77.09,6.13,6.13,0,0,1,1.41.28ZM349.74,111H333.26L315,65h16.86l9.78,29.84h.28L351.7,65H368ZM405,82a9.63,9.63,0,0,0-2.21-6.35Q400.59,73,396.18,73a10.79,10.79,0,0,0-4,.71,10.1,10.1,0,0,0-3.15,1.94,9.6,9.6,0,0,0-2.16,2.89A8.84,8.84,0,0,0,386,82Zm15,6V89.9a16.3,16.3,0,0,1-.09,1.76H386.52a7.94,7.94,0,0,0,1.16,3.51,9.94,9.94,0,0,0,2.49,2.73,12.06,12.06,0,0,0,3.43,1.8,11.83,11.83,0,0,0,3.93.65,12.79,12.79,0,0,0,6.1-1.34,12.08,12.08,0,0,0,4.07-3.47l10.54,6.66a21.44,21.44,0,0,1-8.55,7.26A28.41,28.41,0,0,1,397.34,112a29.42,29.42,0,0,1-9.8-1.62,23.8,23.8,0,0,1-8.09-4.71A21.73,21.73,0,0,1,374,98a25.46,25.46,0,0,1-2-10.36,26,26,0,0,1,1.94-10.21,23.23,23.23,0,0,1,5.27-7.77,23.53,23.53,0,0,1,7.87-4.94,26.87,26.87,0,0,1,9.8-1.76,24.84,24.84,0,0,1,9.34,1.71,20.33,20.33,0,0,1,7.31,5,22.77,22.77,0,0,1,4.76,7.86A30.2,30.2,0,0,1,420,88.05Zm38.36-11.46a10.61,10.61,0,0,0-1.95-.37q-1-.09-1.86-.09a10.48,10.48,0,0,0-5.05,1.1,10.28,10.28,0,0,0-3.27,2.66,10.18,10.18,0,0,0-1.78,3.4,11.55,11.55,0,0,0-.54,3.21V110H429V64.29h14.36v6.6h.19a14.82,14.82,0,0,1,4.9-5.69,12.64,12.64,0,0,1,7.37-2.2,17,17,0,0,1,1.77.09,6.13,6.13,0,0,1,1.41.28ZM517,87a28.73,28.73,0,0,1-1.47,9.17,23.63,23.63,0,0,1-4.28,7.76,21.17,21.17,0,0,1-6.86,5.36,20.32,20.32,0,0,1-9.21,2,19.35,19.35,0,0,1-8-1.69,14.38,14.38,0,0,1-5.89-4.64h-.18V132H466V64.28h14.36v5.6h.28a18.73,18.73,0,0,1,5.84-4.82A18,18,0,0,1,495.27,63a20.68,20.68,0,0,1,9,1.93,20.15,20.15,0,0,1,6.85,5.23,23.52,23.52,0,0,1,4.33,7.66A27.59,27.59,0,0,1,517,87Zm-15,0a14.12,14.12,0,0,0-.7-4.41,11.4,11.4,0,0,0-2-3.8A10.47,10.47,0,0,0,495.87,76a10.33,10.33,0,0,0-4.73-1,10.12,10.12,0,0,0-4.64,1A11.08,11.08,0,0,0,483,78.75a12.8,12.8,0,0,0,0,16.5A11.08,11.08,0,0,0,486.5,98a10.12,10.12,0,0,0,4.64,1,10.33,10.33,0,0,0,4.73-1,10.09,10.09,0,0,0,3.39-2.72,11.84,11.84,0,0,0,2-3.89A14.51,14.51,0,0,0,502,86.91ZM553,91h-1.93c-1.66,0-3.33.08-5,.23a21,21,0,0,0-4.51.88A8.3,8.3,0,0,0,538.29,94,4.38,4.38,0,0,0,537,97.29a4,4,0,0,0,.6,2.21,4.64,4.64,0,0,0,1.51,1.48,6.61,6.61,0,0,0,2.12.79,12.45,12.45,0,0,0,2.3.23c3.06,0,5.41-.85,7-2.54A9.53,9.53,0,0,0,553,92.57ZM525.22,70.83a26.57,26.57,0,0,1,9.5-5.87,32.21,32.21,0,0,1,11.07-2,29.45,29.45,0,0,1,9.86,1.44,14.69,14.69,0,0,1,6.53,4.48,19,19,0,0,1,3.66,7.63,45.56,45.56,0,0,1,1.16,11v23.38H553.11v-4.94h-.28a11.49,11.49,0,0,1-5.33,4.48,18.92,18.92,0,0,1-7.73,1.58,23.41,23.41,0,0,1-5.75-.75,16.68,16.68,0,0,1-5.42-2.42,13.2,13.2,0,0,1-4-4.47A13.85,13.85,0,0,1,523,97.47a11.76,11.76,0,0,1,2.73-8.11,17.94,17.94,0,0,1,7-4.75,36.93,36.93,0,0,1,9.59-2.23,95.77,95.77,0,0,1,10.28-.56v-.75A5.67,5.67,0,0,0,550.23,76a10.28,10.28,0,0,0-5.92-1.63,14.72,14.72,0,0,0-6.26,1.39,19.88,19.88,0,0,0-5.14,3.36Zm85,8.53a9.33,9.33,0,0,0-3.53-2.68,11,11,0,0,0-4.55-1,9.64,9.64,0,0,0-4.37,1,10.47,10.47,0,0,0-3.34,2.59A11.87,11.87,0,0,0,592.21,83a12.85,12.85,0,0,0-.79,4.53,13.54,13.54,0,0,0,.74,4.53,11,11,0,0,0,2.18,3.74,10.47,10.47,0,0,0,3.44,2.55,10.68,10.68,0,0,0,4.5.92,12.6,12.6,0,0,0,4.6-.88,8.74,8.74,0,0,0,3.67-2.54L619,106.08a19.94,19.94,0,0,1-7.43,4.35,29.29,29.29,0,0,1-9.66,1.57,30.54,30.54,0,0,1-10.21-1.66,23.52,23.52,0,0,1-8.22-4.86A22.6,22.6,0,0,1,578,97.76a27.09,27.09,0,0,1,0-20.43,22.7,22.7,0,0,1,5.48-7.72,24.07,24.07,0,0,1,8.22-4.9A29.54,29.54,0,0,1,601.82,63a26.72,26.72,0,0,1,5,.46,33.81,33.81,0,0,1,4.73,1.25,21.37,21.37,0,0,1,4.18,1.94,17.76,17.76,0,0,1,3.3,2.54ZM674,111H655.37l-15-22.13h-.28V111H625V41h15.14V83.59h.28L655,64.89h18.26L655.65,85.72Zm23-9a8.41,8.41,0,0,1-2.77,6.43,9.44,9.44,0,0,1-6.64,2.57,10,10,0,0,1-3.71-.69,10.13,10.13,0,0,1-3.06-1.88,8.76,8.76,0,0,1-2.07-2.8,8.26,8.26,0,0,1-.75-3.54,8.36,8.36,0,0,1,.75-3.49,9.12,9.12,0,0,1,2.07-2.89,10.2,10.2,0,0,1,3.06-2,9.84,9.84,0,0,1,10.35,1.84A8.41,8.41,0,0,1,697,102Zm27-52.5a8.32,8.32,0,0,1-.68,3.35,8.44,8.44,0,0,1-1.81,2.69,8.13,8.13,0,0,1-2.71,1.8,8.45,8.45,0,0,1-3.3.66,8.12,8.12,0,0,1-6.06-2.5,8.28,8.28,0,0,1-2.44-6,8.64,8.64,0,0,1,.63-3.26,7.79,7.79,0,0,1,1.81-2.69,9.76,9.76,0,0,1,2.71-1.84A8,8,0,0,1,715.5,41a8.45,8.45,0,0,1,3.3.66,8.13,8.13,0,0,1,2.71,1.8,8.44,8.44,0,0,1,1.81,2.69A8.32,8.32,0,0,1,724,49.5ZM708,111V65h15v46Zm75-23.68a25,25,0,0,1-2,10.21,23,23,0,0,1-5.53,7.77,25.39,25.39,0,0,1-8.12,4.94,28.42,28.42,0,0,1-19.69,0,24.71,24.71,0,0,1-8.11-4.94A23.19,23.19,0,0,1,734,97.53a25,25,0,0,1-2-10.21,24.66,24.66,0,0,1,2-10.17,22.82,22.82,0,0,1,5.49-7.68,23.92,23.92,0,0,1,8.11-4.81,30,30,0,0,1,19.69,0,24.56,24.56,0,0,1,8.12,4.81A22.64,22.64,0,0,1,781,77.15,24.66,24.66,0,0,1,783,87.32Zm-14-.41a13.36,13.36,0,0,0-.75-4.41,11.62,11.62,0,0,0-2.14-3.8A10.94,10.94,0,0,0,762.66,76a10.67,10.67,0,0,0-12.91,2.67,11.61,11.61,0,0,0-2,3.8,14.21,14.21,0,0,0,0,8.81,11.92,11.92,0,0,0,2.1,3.89,10.58,10.58,0,0,0,16.4,0,11.92,11.92,0,0,0,2.1-3.89A14.06,14.06,0,0,0,769,86.91Z"/><g id="package"><path id="Shape" class="cls-2" d="M110.76,138.65a2.68,2.68,0,0,1-1.48,3.59l-1.27.53a2.91,2.91,0,0,1-3.77-1.41,2.69,2.69,0,0,1,1.48-3.6l1.27-.53a3,3,0,0,1,2.2,0,2.82,2.82,0,0,1,1.57,1.46ZM173.11,29.27l-23,21.29V123a2.77,2.77,0,0,1-1.69,2.56l-30.54,13.26a2.8,2.8,0,1,1-2.23-5.14l28.85-12.51V53.5L89.81,75.63v69.3l6.35-2.76a2.8,2.8,0,1,1,2.24,5.14l-10.28,4.46h-.05a2.66,2.66,0,0,1-2.19,0L25.57,125.61a2.77,2.77,0,0,1-1.69-2.56V83l-22.13-9a2.8,2.8,0,0,1-.86-4.64L24.78,47.29l0,0a2.91,2.91,0,0,1,.81-.53L85.94,22.33h0a2.87,2.87,0,0,1,2.08,0l58.66,23.74,19.34-17.92L111.48,6.07,98.84,17.78A2.8,2.8,0,1,1,95,13.68L109,.75a2.82,2.82,0,0,1,3-.54l60.31,24.41a2.8,2.8,0,0,1,.86,4.64ZM34,49.43,87,71l53-21.57L89.82,29V61a2.82,2.82,0,1,1-5.63,0V29Zm-4.52,71.93L84,145V76L27.28,53,8,70.86l19.76,8h0l34.61,14,11-10.19A2.82,2.82,0,0,1,76.15,82a2.78,2.78,0,0,1,1,4.76L64.9,98.17a2.84,2.84,0,0,1-3,.54L29.48,85.57Z"/></g></g></g></g></g></g></svg>